<svg viewBox="0 0.21 463.04 112.59060409282701" fill="none" xmlns="http://www.w3.org/2000/svg" style="max-height: 500px" width="463.04" height="112.59060409282701">
<path fill="url(#paint0_linear_156_50)" d="M10.75 0.205475C4.86838 0.205475 0 5.08719 0 10.9849V97.2205C0 103.118 4.86838 108 10.75 108H75.25C81.1316 108 86 103.118 86 97.2205V32.5438L53.75 0.205475H10.75ZM10.75 10.9849H48.375V37.9336H75.25V97.2205H10.75V10.9849Z"/>
<g clip-path="url(#clip0_156_50)">
<path fill="url(#paint1_linear_156_50)" d="M63.7312 44.9984C63.4555 45.0346 63.2289 45.1136 62.8481 45.298C62.0962 45.6635 61.5841 46.2594 61.3313 47.0561C61.2459 47.3326 61.2393 47.3886 61.2393 47.8956C61.2393 48.5376 61.2787 48.7253 61.5184 49.229C61.8204 49.8644 62.2899 50.3319 62.9695 50.6809L63.3241 50.862V52.9888V55.1189L62.592 55.8432C62.1882 56.2449 61.5709 56.8474 61.2163 57.1865L60.5729 57.8054H57.5491H54.5253V57.5289C54.5253 56.9791 54.394 56.077 54.2265 55.4646C54.0394 54.7831 53.6684 53.9929 53.2777 53.4431C53.0216 53.0843 52.3354 52.383 51.9973 52.1394C51.3045 51.6324 50.4181 51.2175 49.6433 51.0365C49.3248 50.9607 49.3084 50.9575 49.1081 50.9212C48.8652 50.8751 48.8586 50.8751 48.6288 50.8455L48.4285 50.8192L48.3267 50.6151C48.0608 50.0982 47.6537 49.4693 47.2761 48.9985C47.0233 48.6792 46.37 48.0109 46.0417 47.731C45.7757 47.5038 45.0731 47.0561 44.7087 46.8816C42.811 45.9729 40.7722 46.0454 38.6579 47.0956L38.1096 47.3689L37.929 47.2536C37.2986 46.8487 36.4877 46.559 35.5323 46.391C35.1219 46.3219 33.9269 46.312 33.5296 46.3746C32.3247 46.5721 31.4514 46.8717 30.6043 47.3722C29.8919 47.7936 29.314 48.2808 28.8544 48.8504C28.4177 49.387 28.1354 49.8644 27.9351 50.3978C27.876 50.5525 27.8169 50.7072 27.8005 50.7467C27.7775 50.8027 27.7348 50.8192 27.5477 50.8389C25.499 51.0496 23.9822 51.8925 22.9218 53.4135C22.5672 53.9172 22.1995 54.7568 21.9893 55.5173C21.8449 56.0605 21.7136 57.1865 21.7333 57.7791L21.7431 58.1314L21.4312 58.2499C18.391 59.4285 16.559 62.8657 17.2813 66.0526C17.4586 66.8395 17.8821 67.7876 18.2892 68.3177L18.3845 68.4395L18.1678 68.7687C17.3503 70.0034 17.0022 71.2676 17.0975 72.6372C17.2649 74.9484 18.8999 77.1114 21.3787 78.2999L21.7333 78.4711L21.73 78.8958C21.7234 79.337 21.8022 80.4597 21.858 80.7198C21.8744 80.8021 21.8974 80.9338 21.9105 81.0161C21.9204 81.0984 21.9729 81.3321 22.0255 81.533C22.6296 83.8738 24.2678 85.3356 27.0126 85.9874C27.2555 86.0434 27.4886 86.0994 27.5247 86.1059C27.5674 86.1125 27.6134 86.1619 27.6364 86.2245C27.7447 86.4911 28.0763 87.1661 28.2142 87.3932C28.5392 87.9299 28.8084 88.2789 29.2287 88.7167C29.8164 89.3258 30.3548 89.7209 31.064 90.0666C31.8453 90.4452 32.4921 90.623 33.4607 90.7152C34.0057 90.7678 34.0812 90.7678 34.6426 90.7152C35.7753 90.6131 36.6716 90.3695 37.7255 89.8822L38.1129 89.7044L38.4313 89.8987C39.5476 90.5868 40.6343 90.8666 42.0001 90.8172C42.9719 90.781 43.842 90.5637 44.7251 90.1357C45.4605 89.7801 45.9891 89.4081 46.5899 88.8188C47.309 88.1208 47.9163 87.1924 48.1921 86.3759C48.2315 86.2607 48.2709 86.1586 48.284 86.1455C48.2972 86.1323 48.4219 86.1059 48.5664 86.0862C49.7418 85.9282 50.9401 85.4804 51.8003 84.8746C53.1595 83.9166 54.0492 82.468 54.3743 80.6704C54.4432 80.2918 54.5253 79.4852 54.5253 79.1954V78.9748L57.0139 78.965C58.3797 78.9617 59.7389 78.9617 60.0344 78.965L60.5696 78.9716L60.7567 79.1296C60.9471 79.2909 62.569 80.9008 62.8349 81.1971C62.917 81.286 63.0615 81.4539 63.1534 81.5659L63.3241 81.77V84.0581V86.3463L63.0188 86.4944C62.0864 86.9521 61.456 87.6994 61.2163 88.6245C61.1244 88.99 61.1179 89.6122 61.2065 89.9711C61.3313 90.4946 61.6333 91.0115 62.024 91.3802C62.6741 91.9893 63.4949 92.2724 64.4273 92.2033C65.8948 92.1012 67.1326 90.6394 67.1326 89.013C67.1326 88.1274 66.7649 87.3702 66.1017 86.8961C65.8554 86.7216 65.4812 86.5274 65.1955 86.4319L64.9821 86.3562L64.9657 83.6598L64.9493 80.9601L64.3419 80.3741C62.8973 78.9781 61.9419 78.0267 61.6661 77.704C61.5053 77.5164 61.351 77.3386 61.328 77.3122C61.2886 77.2694 60.8421 77.2629 57.7986 77.2629H54.3119L54.7092 76.8579C55.6284 75.9229 56.0651 75.3105 56.4295 74.4479L56.6035 74.0364H60.9176H65.2284L67.126 75.9262C68.1668 76.9665 69.4341 78.2505 69.9397 78.7806C71.4138 80.3214 71.9621 80.8811 72.1624 81.0358L72.3462 81.1807L73.3115 81.1873L74.2734 81.1971L74.3292 81.4276C74.4015 81.7239 74.6378 82.198 74.8381 82.4416C75.1533 82.8301 75.7246 83.1758 76.2925 83.3273C76.6964 83.4326 77.4351 83.4326 77.8323 83.324C78.7352 83.0836 79.3951 82.5305 79.8088 81.6646C79.8777 81.5165 79.9664 81.2893 80.0025 81.1642C80.0911 80.8679 80.1207 80.3477 80.0714 80.0284C79.9237 79.0868 79.2375 78.2374 78.2526 77.7732C77.7404 77.5328 77.5073 77.4801 76.9163 77.4801C76.4239 77.4801 76.3976 77.4834 76.0956 77.5888C75.9248 77.6481 75.718 77.7369 75.6359 77.783C75.4028 77.9147 75.0975 78.1682 74.9202 78.3756C74.7265 78.5995 74.4474 79.0473 74.3686 79.2646C74.3358 79.3502 74.2964 79.4391 74.28 79.4621C74.257 79.4917 74.083 79.5016 73.6168 79.5016H72.9831L70.2811 76.7624C68.7938 75.2546 67.2048 73.6413 66.755 73.1771L65.9342 72.331L61.4823 72.3277L57.0336 72.3244L56.9745 71.5441C56.945 71.1161 56.9056 70.698 56.8892 70.6157C56.8695 70.5334 56.8268 70.3095 56.7874 70.1186C56.7513 69.9276 56.6987 69.7103 56.6725 69.6313C56.6462 69.5556 56.6265 69.47 56.6265 69.4437C56.6265 69.4009 57.7132 69.3943 65.4483 69.4009L74.2701 69.4107L74.3686 69.6412C75.1172 71.3697 77.0575 72.0479 78.6104 71.126C79.2802 70.7277 79.7825 69.9935 79.9894 69.1144C80.0649 68.7852 80.0649 68.1926 79.9894 67.8798C79.9171 67.5901 79.753 67.2181 79.5855 66.9646C79.2375 66.4378 78.571 65.9571 77.9013 65.7431C77.6288 65.6575 77.1494 65.5752 76.9163 65.5752C76.46 65.5752 75.869 65.7464 75.4586 65.9933C75.022 66.26 74.5886 66.8164 74.3653 67.4024L74.2636 67.6658L65.0576 67.6823C59.995 67.6922 55.809 67.6856 55.7499 67.6724C55.6908 67.6592 55.612 67.6066 55.5726 67.5572C55.4643 67.4189 55.5004 67.116 55.6908 66.5629C55.9699 65.7596 56.0946 65.2954 56.1505 64.8509C56.1866 64.5579 56.18 64.5645 56.4065 64.5447C56.6035 64.525 57.7855 64.5447 61.5085 64.6205C63.1994 64.6567 64.8771 64.6303 65.8587 64.5579L66.1443 64.5382L66.3676 64.3472C66.4891 64.2418 67.914 62.8327 69.5293 61.2162C71.1446 59.5997 72.5793 58.1807 72.7139 58.0622L72.9602 57.8449L73.3541 57.8383C74.1191 57.8252 74.454 57.8351 74.454 57.8746C74.454 57.9305 74.7856 58.4211 74.9465 58.6054C75.4225 59.1454 76.2499 59.5174 76.9787 59.5174C77.2742 59.5174 77.8028 59.4121 78.118 59.2902C79.0208 58.9413 79.7234 58.184 79.9729 57.2951C80.0616 56.9791 80.0813 56.314 80.0058 56.044C79.7037 54.9247 79.1193 54.2135 78.1836 53.8382C77.5927 53.6012 76.7817 53.588 76.135 53.8086C75.5046 54.0193 74.9169 54.5296 74.605 55.1354C74.4737 55.3889 74.4179 55.5502 74.2931 56.0177L74.2537 56.1593H73.2786H72.3068L71.7782 56.6762C71.4893 56.9626 71.0526 57.3807 70.8097 57.6079C70.3139 58.0688 67.4642 60.8673 66.2888 62.0459L65.5238 62.8097L60.8585 62.8031L56.1931 62.7932L56.0224 62.3652C55.6219 61.371 55.415 61.0022 54.7518 60.1232C54.5548 59.8631 54.371 59.6096 54.3382 59.5635L54.2823 59.4779L57.7822 59.4878L61.2787 59.5009L61.6038 59.2079C62.7857 58.1412 64.8639 56.0506 64.9558 55.8399C64.9854 55.7708 64.9887 55.1255 64.9755 53.239C64.9591 51.0957 64.9624 50.727 65.0018 50.7138C65.6059 50.5262 65.8817 50.3648 66.2658 49.9862C66.5285 49.7228 66.5876 49.6438 66.7353 49.3442C67.0341 48.7286 67.1129 48.0602 66.9651 47.3754C66.6204 45.7853 65.2776 44.7976 63.7312 44.9984ZM64.5553 46.7269C64.9854 46.8783 65.2743 47.201 65.3794 47.6487C65.4286 47.866 65.4319 47.9253 65.3958 48.103C65.3039 48.5705 65.0445 48.9064 64.6144 49.1039C64.378 49.2125 64.3518 49.2191 64.0661 49.206C63.6984 49.1928 63.4817 49.1006 63.2519 48.8669C63.0615 48.6759 62.9695 48.4948 62.9269 48.2281C62.8711 47.8726 62.9892 47.4314 63.2191 47.1516C63.3373 47.01 63.6229 46.7894 63.8002 46.7038C63.9611 46.6281 64.3025 46.638 64.5553 46.7269ZM35.1285 48.08C35.7293 48.1821 36.1364 48.3105 36.688 48.5705C37.1706 48.801 37.7025 49.1434 37.998 49.42L38.103 49.5154L38.3427 49.3376C38.7005 49.0743 38.9238 48.936 39.3309 48.7319C40.0992 48.3434 40.7624 48.159 41.6291 48.0866C42.8833 47.9845 44.0028 48.2775 44.9484 48.9525C45.3029 49.206 45.7954 49.7163 46.0417 50.0883C46.2058 50.3385 46.5473 50.9673 46.5473 51.0266C46.5473 51.0365 46.4094 51.0957 46.2452 51.155C45.1683 51.5402 44.0619 52.3106 43.356 53.1666C42.9752 53.6242 42.5812 54.3288 42.3974 54.8786C42.1577 55.6062 42.0855 56.4984 42.2102 57.2622C42.2463 57.4959 42.2857 57.7198 42.2989 57.7593C42.312 57.8153 42.2857 57.8515 42.1807 57.9305C41.7112 58.2762 40.9922 59.0071 40.7197 59.4186C40.4143 59.873 40.1878 60.4623 40.0992 61.0187C40.0335 61.4368 40.0335 61.7628 40.0959 62.194C40.1845 62.7669 40.2797 63.0138 40.503 63.2147C40.6245 63.3266 40.654 63.3365 40.828 63.3365C40.9758 63.3365 41.0513 63.3167 41.1892 63.2344C41.5996 63.0007 41.7046 62.7801 41.7539 62.0788C41.813 61.18 41.8885 60.8113 42.0953 60.4063C42.2365 60.1232 42.4072 59.9026 42.6469 59.6985C42.8734 59.5042 43.0409 59.4121 43.3462 59.3166C43.6614 59.2178 44.2556 59.2178 44.8893 59.3199C45.5722 59.4285 45.756 59.4483 45.9727 59.4516C46.4717 59.4516 46.7049 59.2639 46.7607 58.8162C46.8263 58.2861 46.649 57.9799 46.2058 57.8548C46.0187 57.8021 45.93 57.789 45.4967 57.7396C45.1257 57.6968 44.7579 57.6013 44.5347 57.4861C44.2852 57.361 43.9864 57.0416 43.8912 56.8013C43.5924 56.0309 43.97 54.9938 44.8893 54.0654C45.6378 53.3114 46.6096 52.7814 47.6143 52.5838C48.0838 52.4917 48.7962 52.5081 49.2493 52.6168C49.9978 52.7978 50.5231 53.0744 51.1568 53.6176C51.6722 54.0654 52.017 54.4967 52.2928 55.0564C52.5915 55.6588 52.69 56.0144 52.7754 56.7453C52.8279 57.1898 52.8279 57.2457 52.7754 57.6704C52.7064 58.1972 52.6572 58.4178 52.516 58.7766C52.3453 59.2079 52.1155 59.5668 51.7872 59.9059C51.4293 60.2779 51.2093 60.4261 50.579 60.729C50.0077 61.0022 49.7779 61.1965 49.7056 61.4697C49.6531 61.6706 49.6564 61.7331 49.7155 61.9702C49.8435 62.4574 50.1751 62.6023 50.7661 62.4344C51.3636 62.2632 52.2665 61.7331 52.8936 61.1965C53.0577 61.0516 53.2055 60.9331 53.2186 60.9331C53.2646 60.9331 53.6224 61.3578 53.7899 61.6113C54.023 61.9636 54.2101 62.3619 54.3283 62.7439C54.4301 63.0731 54.5253 63.6558 54.5253 63.9521C54.5253 64.1694 54.4399 64.739 54.3743 64.9826C54.2594 65.3843 54.2167 65.4896 53.8457 66.2271C53.2744 67.3662 53.2744 67.3629 54.0657 68.3243C54.7978 69.2132 55.0572 69.7268 55.2673 70.698C55.3494 71.0668 55.3494 72.0051 55.2673 72.3903C55.0539 73.4043 54.7223 74.1352 54.1346 74.8924C53.9901 75.0801 53.4977 75.5904 53.3368 75.7188L53.212 75.8175L52.9395 75.5772C52.2862 75.0043 51.4818 74.4611 51.0682 74.3097C50.6413 74.1549 50.4148 74.1352 50.2047 74.2307C49.9453 74.3492 49.8304 74.5928 49.8304 75.0175C49.8304 75.4389 49.9946 75.6332 50.6676 76.0019C51.1404 76.262 51.4129 76.453 51.6821 76.7163C52.0334 77.062 52.2763 77.4308 52.4701 77.9016C53.3631 80.0613 52.2468 82.9256 50.1193 83.9429C49.7221 84.1306 49.2493 84.2656 48.7634 84.3281C48.399 84.3742 48.2808 84.3775 47.9426 84.3446C46.7278 84.2228 45.8348 83.8244 45.0961 83.0803C44.7415 82.7215 44.5314 82.4285 44.3147 81.9939C43.9733 81.3157 43.8551 80.8021 43.8321 79.9428L43.8157 79.314L44.6463 79.2942C45.3358 79.281 45.5393 79.2646 45.825 79.2053C46.393 79.0835 46.7246 78.9057 46.8395 78.6588C46.9347 78.458 46.9248 78.3592 46.7935 78.0991C46.6556 77.8193 46.5505 77.704 46.393 77.6579C46.324 77.6349 45.9005 77.6053 45.4474 77.5921C44.2655 77.5526 43.6417 77.4472 43.1164 77.2003C42.4105 76.8678 42.0297 76.4036 41.813 75.6068C41.7473 75.3698 41.7375 75.2513 41.7342 74.6488L41.7309 73.9607L41.57 73.829C41.3829 73.6776 41.2154 73.5887 41.002 73.5228C40.6901 73.4273 40.4866 73.4833 40.2535 73.7236C40.0171 73.9673 39.9744 74.1187 39.9547 74.7508C39.9416 75.3303 39.9941 75.7484 40.1484 76.2027C40.3454 76.7822 40.5719 77.0982 41.4321 77.974L42.115 78.6687L42.1282 79.8177C42.138 81.1148 42.1577 81.263 42.4138 82.0202C42.9358 83.5544 44.0849 84.7396 45.9497 85.6615L46.5505 85.9578L46.4455 86.1455C45.4802 87.8574 43.9043 88.9637 42.2135 89.1184C41.4584 89.1875 40.7328 89.0756 40.0269 88.7727C39.7216 88.6443 39.5509 88.5455 38.799 88.0682C38.4477 87.8443 38.2245 87.7554 38.0603 87.7718C37.9192 87.7883 37.3052 88.0846 36.5665 88.4896C35.9624 88.8254 35.4765 89.0262 35.2368 89.0427C34.9184 89.0657 33.7266 88.9867 33.3162 88.9176C32.5512 88.7892 32.154 88.6641 31.5433 88.3546C30.67 87.9101 30.0429 87.255 29.557 86.287C29.4716 86.1191 29.4158 85.9677 29.4322 85.9545C29.4454 85.938 29.5701 85.8952 29.7047 85.8557C30.0035 85.7668 30.6733 85.5035 30.9589 85.3586C32.0653 84.8022 32.8697 84.0153 33.3786 82.9914C33.8612 82.0268 34.0779 81.0358 34.137 79.4983L34.1698 78.7049L34.5572 78.323C35.0366 77.8489 35.1219 77.7468 35.4667 77.2299C35.8705 76.6176 36.0773 76.183 36.2448 75.5772C36.3071 75.35 36.3203 75.2249 36.3203 74.843C36.3203 74.415 36.3137 74.3656 36.2251 74.1418C36.0609 73.7138 35.7851 73.5261 35.3353 73.5261C35.1186 73.5261 35.0464 73.5426 34.9249 73.6084C34.6787 73.7467 34.5605 74.0463 34.5145 74.629C34.4653 75.3007 34.3471 75.8142 34.1534 76.1962C33.8678 76.7756 33.2308 77.3122 32.5381 77.5625C32.2853 77.6546 32.1966 77.6678 31.8224 77.681C31.4218 77.6974 31.2445 77.681 30.7225 77.5921C30.3876 77.5328 29.9411 77.5394 29.7868 77.6053C29.6227 77.6744 29.488 77.7995 29.3994 77.9707C29.3042 78.1452 29.2976 78.5732 29.3863 78.7378C29.557 79.0539 29.8787 79.2448 30.4172 79.3502C30.7816 79.4226 30.8506 79.4292 31.6746 79.4687C32.0784 79.4852 32.4232 79.5148 32.4429 79.5345C32.4626 79.5543 32.4593 79.709 32.4363 79.9691C32.259 81.7832 31.32 83.2482 29.8426 84.0088C29.1827 84.3479 28.316 84.5191 27.6429 84.4433C26.507 84.3116 25.6008 83.8738 24.7997 83.0639C24.1365 82.3955 23.7196 81.5823 23.5127 80.5584C23.4438 80.216 23.4274 80.0514 23.4274 79.6004C23.4241 78.9781 23.4733 78.6588 23.6539 78.1189C23.7885 77.7172 23.8772 77.5328 24.0971 77.197C24.4517 76.6604 24.9113 76.2752 25.6238 75.9163C26.3428 75.5574 26.4708 75.4093 26.4676 74.9418C26.4676 74.7245 26.4511 74.6422 26.3756 74.4809C26.2148 74.1286 26.0834 74.0364 25.7387 74.0364C25.2561 74.0364 24.6815 74.3623 23.8772 75.0899C23.3223 75.5904 22.3833 76.6538 22.3833 76.7789C22.3833 76.8908 21.4805 76.4628 20.9716 76.1073C20.5152 75.7912 19.9111 75.1821 19.6189 74.7443C19.0673 73.9179 18.8277 73.1442 18.8277 72.2092C18.831 71.5211 18.9229 71.0766 19.2217 70.349C19.4745 69.7268 19.7732 69.2823 20.2296 68.8445C20.8008 68.2947 21.2211 68.0872 22.4753 67.7284C23.0695 67.5605 23.4044 67.3959 23.5193 67.2214C23.6145 67.0765 23.6769 66.7407 23.6473 66.5135C23.6047 66.1645 23.4142 65.9769 23.0268 65.9045C22.7576 65.8551 22.275 65.9308 21.7431 66.1086C21.1259 66.3127 20.1475 66.8098 19.5697 67.2115C19.4974 67.2609 19.4942 67.2576 19.4121 67.0732C18.7029 65.4633 18.7029 63.6064 19.4121 62.1809C19.6616 61.6804 19.9045 61.3413 20.3149 60.9331C20.7188 60.5249 21.0536 60.2845 21.5527 60.031C21.8318 59.8927 22.2586 59.7149 22.3177 59.7149C22.3308 59.7149 22.3603 59.7643 22.3833 59.8203C22.4851 60.0771 22.6985 60.4755 22.8692 60.7191C23.6605 61.8484 25.1379 62.7307 25.9652 62.5628C26.3329 62.4903 26.4873 62.2731 26.4873 61.8352C26.484 61.3348 26.3231 61.1636 25.4366 60.7191C24.7735 60.3866 24.1103 59.7149 23.7524 59.0071C23.3978 58.3026 23.2796 57.305 23.4536 56.4589C23.713 55.188 24.5568 53.9436 25.6501 53.2061C25.939 53.0118 26.4643 52.755 26.7827 52.6563C27.1307 52.5443 27.7381 52.439 28.027 52.439C28.2864 52.439 28.8544 52.518 29.1138 52.5904C29.9247 52.8143 30.693 53.2621 31.2806 53.8547C31.6812 54.253 31.8782 54.5197 32.0981 54.9543C32.4856 55.7181 32.5085 56.4029 32.1572 56.9264C31.9997 57.1601 31.7862 57.3346 31.4612 57.4894C31.1723 57.6309 31.0935 57.654 30.6142 57.7527C30.1808 57.8449 30.0101 57.9272 29.8229 58.1379C29.6588 58.319 29.6062 58.454 29.6062 58.6943C29.6062 58.9314 29.6752 59.0828 29.859 59.2573C30.0856 59.4746 30.2399 59.5339 30.5748 59.5306C30.8637 59.5273 30.9655 59.5075 31.5433 59.3232C31.6615 59.287 31.9012 59.2343 32.0752 59.2046C32.3772 59.1553 32.4133 59.1586 32.7055 59.2178C33.1028 59.3001 33.4245 59.4647 33.7233 59.7479C34.2322 60.2285 34.4128 60.6993 34.4981 61.7726C34.5605 62.5463 34.6295 62.7801 34.8527 62.9809C35.1679 63.2673 35.6604 63.2673 35.9263 62.9809C36.1364 62.7603 36.3039 62.1875 36.3039 61.6969C36.3039 61.2327 36.1692 60.6006 35.9624 60.087C35.5717 59.1322 34.8888 58.3651 34.0647 57.9635C33.8021 57.8318 33.7791 57.8153 33.7955 57.7396C33.9137 57.2029 33.9466 56.8046 33.9301 56.1593C33.9104 55.4745 33.8513 55.1222 33.6576 54.5493C33.2111 53.2094 32.3116 52.1361 31.1263 51.5303C30.7816 51.3558 30.2333 51.1583 29.8853 51.0859C29.777 51.0628 29.685 51.0431 29.6818 51.0398C29.6555 51.0233 29.859 50.5887 29.9904 50.3714C30.3482 49.7755 30.8965 49.2257 31.5137 48.8504C32.1441 48.4652 32.7384 48.2413 33.5132 48.0932C33.9236 48.0141 34.7148 48.0076 35.1285 48.08ZM77.3005 55.3362C77.5697 55.3823 77.7667 55.4679 77.9374 55.6226C78.3938 56.0342 78.4561 56.686 78.095 57.2523C77.9735 57.44 77.7897 57.598 77.5434 57.7231C77.0903 57.9503 76.4009 57.7363 76.0857 57.2721C75.8263 56.8869 75.8001 56.4424 76.0135 56.0243C76.112 55.8399 76.3976 55.5634 76.6044 55.458C76.9295 55.2934 76.982 55.2868 77.3005 55.3362ZM77.5467 67.3827C77.7995 67.4683 78.0096 67.6197 78.1344 67.8008C78.5973 68.4757 78.3281 69.3153 77.5172 69.7268C77.3235 69.8256 77.3005 69.8289 77.0181 69.8157C76.785 69.8025 76.6832 69.7795 76.5158 69.7005C75.892 69.4042 75.6425 68.6799 75.9445 68.0379C76.0791 67.7547 76.391 67.4683 76.7029 67.3465C76.8769 67.2773 77.2972 67.2971 77.5467 67.3827ZM77.701 79.2843C77.9144 79.3963 78.141 79.6267 78.2526 79.8572C78.3347 80.0251 78.3445 80.0778 78.3445 80.3905C78.3445 80.7165 78.3379 80.7494 78.2329 80.9601C78.0392 81.3486 77.5697 81.7074 77.1921 81.7568C77.005 81.7832 76.657 81.7107 76.4534 81.6054C76.1317 81.4408 75.8789 81.0655 75.8329 80.6737C75.7771 80.2226 75.9183 79.8111 76.2302 79.5148C76.6603 79.1098 77.1921 79.0275 77.701 79.2843ZM64.5356 88.0254C64.7753 88.1011 65.0314 88.2822 65.1594 88.4698C65.4024 88.8188 65.4286 89.3225 65.2316 89.7242C65.1003 89.9908 64.8081 90.2937 64.5652 90.4188C64.4108 90.4979 64.3682 90.5044 64.1449 90.488C63.3471 90.432 62.8021 89.8888 62.8382 89.1809C62.8546 88.8517 62.9663 88.6114 63.2191 88.3612C63.3799 88.2031 63.6295 88.0451 63.8166 87.9826C63.9414 87.943 64.3485 87.9661 64.5356 88.0254Z"/>
<path fill="url(#paint2_linear_156_50)" d="M28.9791 63.8303C28.8084 63.9192 28.6541 64.0838 28.5753 64.2583C28.5162 64.39 28.5096 64.4822 28.5031 65.0814C28.4965 65.6378 28.4834 65.8057 28.4308 66.0263C28.2634 66.688 27.8924 67.1094 27.262 67.3531C27.134 67.4024 26.7499 67.5144 26.415 67.5967C25.7518 67.7613 25.499 67.8601 25.3611 68.0049C25.2396 68.1333 25.1411 68.4395 25.1411 68.693C25.1411 69.0255 25.256 69.1836 25.5876 69.2988C25.7616 69.3614 25.8306 69.3679 26.2574 69.3515C26.8286 69.3284 27.3966 69.2099 28.1025 68.9597L28.2896 68.8939L28.5293 68.9663C29.2582 69.1869 29.8491 69.6313 30.0625 70.1252C30.1413 70.2997 30.2136 70.7803 30.2956 71.6495C30.3383 72.094 30.4073 72.3672 30.5123 72.5318C30.6568 72.7524 31.1296 72.9269 31.4251 72.8709C31.5695 72.8446 31.7534 72.6866 31.8387 72.5253C31.9208 72.3606 32.0029 71.8931 32.0029 71.5804C32.0029 71.1063 31.8781 70.3128 31.7205 69.7894C31.4546 68.907 30.8275 68.2025 29.6751 67.4946C29.6719 67.4913 29.6948 67.4321 29.7342 67.3629C29.9575 66.958 30.1676 66.1975 30.2497 65.516C30.3547 64.6172 30.1282 64.0344 29.5931 63.8336C29.3632 63.748 29.1367 63.748 28.9791 63.8303Z"/>
<path fill="url(#paint3_linear_156_50)" d="M46.3339 63.8599C46.0975 63.9686 45.9202 64.1595 45.8184 64.4196C45.756 64.581 45.7462 64.6666 45.7429 65.1308C45.7429 65.4205 45.7527 65.7201 45.7659 65.7958C45.8414 66.2469 46.0121 66.7934 46.2058 67.2181L46.3306 67.4946L46.2321 67.5736C45.651 68.0642 45.1618 68.5613 44.8794 68.9531C44.3311 69.7103 44.0258 70.2997 43.8715 70.8956C43.75 71.3598 43.7796 71.8997 43.9404 72.2586C44.1046 72.6207 44.341 72.7821 44.7415 72.8084C44.9648 72.8248 45.0173 72.8183 45.1749 72.7458C45.3785 72.6504 45.4704 72.5384 45.559 72.2816C45.6477 72.0248 45.6608 71.9261 45.7265 71.1557C45.7691 70.6421 45.8053 70.4873 45.93 70.247C46.0482 70.0231 46.3535 69.6379 46.5505 69.4733C46.7771 69.2823 47.1021 69.0815 47.3451 68.986L47.565 68.8971L47.9032 68.9992C49.0129 69.3383 49.5874 69.4338 50.1127 69.3679C50.579 69.3054 50.8088 69.1441 50.9434 68.7852C51.0944 68.3803 50.9795 68.0181 50.6479 67.8469C50.4969 67.7679 50.1981 67.6922 49.9289 67.6658C49.5382 67.6296 49.0621 67.5407 48.8389 67.4683C48.3661 67.3136 47.9951 66.9909 47.7784 66.5563C47.634 66.26 47.5749 65.9802 47.5322 65.4271C47.5158 65.19 47.4928 64.897 47.483 64.7752C47.4403 64.2122 47.3024 63.9455 46.9938 63.8171C46.8001 63.7381 46.5637 63.7513 46.3339 63.8599Z"/>
</g>
<path fill="url(#paint4_linear_156_50)" d="M111.172 88.7422L118.613 86.1055C118.613 87.082 118.887 87.9414 119.434 88.6836C119.98 89.4258 120.527 89.9141 121.074 90.1484L121.895 90.5586V98.1758C118.574 98.1758 115.742 96.7305 113.398 93.8398C111.953 92.0039 111.211 90.3047 111.172 88.7422ZM111.641 68.2344C111.641 63.9375 113.477 60.7148 117.148 58.5664C118.828 57.5508 120.41 57.0234 121.895 56.9844V64.7188C120.918 64.9922 120.195 65.6953 119.727 66.8281C119.57 67.1797 119.492 67.5508 119.492 67.9414C119.492 69.543 120.684 70.9102 123.066 72.043C123.574 72.2773 124.395 72.6289 125.527 73.0977C127.402 73.8398 128.73 74.4453 129.512 74.9141C132.676 76.7891 134.785 78.7031 135.84 80.6562C136.621 82.1797 137.012 83.8789 137.012 85.7539C137.012 89.3086 135.664 92.3555 132.969 94.8945C130.664 97.082 128.047 98.1758 125.117 98.1758V90.5586C126.641 90.3633 127.715 89.5625 128.34 88.1562C128.613 87.5312 128.75 86.8477 128.75 86.1055C128.75 84.1133 127.266 82.4727 124.297 81.1836C123.75 80.9492 122.891 80.6172 121.719 80.1875C120.352 79.7188 119.395 79.3477 118.848 79.0742C115.488 77.4727 113.34 75.4023 112.402 72.8633C111.895 71.4961 111.641 69.9531 111.641 68.2344ZM125.117 64.7188V56.9844C128.398 56.9844 131.152 58.3711 133.379 61.1445C134.668 62.7852 135.332 64.2695 135.371 65.5977L127.754 68.1172C127.754 66.4766 126.953 65.3633 125.352 64.7773C125.195 64.7383 125.117 64.7188 125.117 64.7188ZM142.194 64.6016H150.631L158.424 90.6172L152.038 109.719H143.952L149.811 90.5L142.194 64.6016ZM155.905 72.4531L158.366 64.6016H166.803L160.182 84.4062H159.42L155.905 72.4531ZM172.747 98V73.6836C172.747 71.7305 173.626 69.8164 175.384 67.9414C177.532 65.7148 180.208 64.582 183.411 64.543V72.3359C181.77 72.5312 180.872 73.293 180.716 74.6211V98H172.747ZM186.106 72.3359V64.543C189.895 64.543 192.884 66.0469 195.071 69.0547C196.243 70.6953 196.829 72.2383 196.829 73.6836V98H188.86V74.6211C188.86 73.332 188.138 72.5898 186.692 72.3945C186.497 72.3555 186.302 72.3359 186.106 72.3359ZM204.882 88.918V73.5664C204.921 71.5352 205.78 69.6211 207.46 67.8242C209.491 65.6758 212.089 64.6016 215.253 64.6016V72.1016C213.613 72.2188 212.714 72.7461 212.558 73.6836V88.918C212.558 89.8555 213.241 90.3828 214.609 90.5C214.843 90.5391 215.077 90.5586 215.312 90.5586V98C211.171 98 208.124 96.3789 206.171 93.1367C205.312 91.6914 204.882 90.2852 204.882 88.918ZM217.948 72.1602V64.6016C221.034 64.6016 223.534 65.793 225.448 68.1758C226.816 69.8555 227.499 71.75 227.499 73.8594L220.351 76.6133V74.6797C220.273 73.0391 219.472 72.1992 217.948 72.1602ZM217.948 98.0586V90.5C219.628 90.5 220.605 90.0508 220.878 89.1523C220.995 88.8008 221.054 88.3906 221.054 87.9219V85.9883L228.202 88.7422C228.241 91.3984 227.03 93.7227 224.57 95.7148C222.538 97.3555 220.331 98.1367 217.948 98.0586ZM234.146 88.7422L241.588 86.1055C241.588 87.082 241.861 87.9414 242.408 88.6836C242.955 89.4258 243.502 89.9141 244.048 90.1484L244.869 90.5586V98.1758C241.548 98.1758 238.716 96.7305 236.373 93.8398C234.927 92.0039 234.185 90.3047 234.146 88.7422ZM234.615 68.2344C234.615 63.9375 236.451 60.7148 240.123 58.5664C241.802 57.5508 243.384 57.0234 244.869 56.9844V64.7188C243.892 64.9922 243.17 65.6953 242.701 66.8281C242.545 67.1797 242.466 67.5508 242.466 67.9414C242.466 69.543 243.658 70.9102 246.041 72.043C246.548 72.2773 247.369 72.6289 248.502 73.0977C250.377 73.8398 251.705 74.4453 252.486 74.9141C255.65 76.7891 257.759 78.7031 258.814 80.6562C259.595 82.1797 259.986 83.8789 259.986 85.7539C259.986 89.3086 258.638 92.3555 255.943 94.8945C253.638 97.082 251.021 98.1758 248.091 98.1758V90.5586C249.615 90.3633 250.689 89.5625 251.314 88.1562C251.588 87.5312 251.724 86.8477 251.724 86.1055C251.724 84.1133 250.24 82.4727 247.271 81.1836C246.724 80.9492 245.865 80.6172 244.693 80.1875C243.326 79.7188 242.369 79.3477 241.822 79.0742C238.463 77.4727 236.314 75.4023 235.377 72.8633C234.869 71.4961 234.615 69.9531 234.615 68.2344ZM248.091 64.7188V56.9844C251.373 56.9844 254.127 58.3711 256.353 61.1445C257.642 62.7852 258.306 64.2695 258.345 65.5977L250.728 68.1172C250.728 66.4766 249.927 65.3633 248.326 64.7773C248.17 64.7383 248.091 64.7188 248.091 64.7188ZM266.984 88.918V73.5664C267.023 71.5352 267.883 69.6211 269.562 67.8242C271.594 65.6758 274.191 64.6016 277.355 64.6016V72.1016C275.715 72.2188 274.816 72.7461 274.66 73.6836V88.918C274.66 89.8555 275.344 90.3828 276.711 90.5C276.945 90.5391 277.18 90.5586 277.414 90.5586V98C273.273 98 270.227 96.3789 268.273 93.1367C267.414 91.6914 266.984 90.2852 266.984 88.918ZM280.051 72.1602V64.6016C283.137 64.6016 285.637 65.793 287.551 68.1758C288.918 69.8555 289.602 71.75 289.602 73.8594L282.453 76.6133V74.6797C282.375 73.0391 281.574 72.1992 280.051 72.1602ZM280.051 98.0586V90.5C281.73 90.5 282.707 90.0508 282.98 89.1523C283.098 88.8008 283.156 88.3906 283.156 87.9219V85.9883L290.305 88.7422C290.344 91.3984 289.133 93.7227 286.672 95.7148C284.641 97.3555 282.434 98.1367 280.051 98.0586ZM297.538 98V64.6016H305.506V68.293C306.873 66.5352 308.729 65.3242 311.073 64.6602C311.893 64.4258 312.713 64.3086 313.534 64.3086H315.643L313.827 72.1602C311.366 72.1992 309.237 73.2734 307.44 75.3828C306.151 76.9062 305.506 78.4883 305.506 80.1289V98H297.538ZM322.759 59.8555C322.759 58.2539 323.481 57.043 324.927 56.2227C325.591 55.832 326.294 55.6367 327.036 55.6367C328.677 55.6367 329.907 56.3594 330.727 57.8047C331.079 58.4688 331.255 59.1523 331.255 59.8555C331.255 61.4961 330.532 62.7266 329.087 63.5469C328.423 63.8984 327.739 64.0742 327.036 64.0742C325.356 64.0742 324.106 63.332 323.286 61.8477C322.934 61.2227 322.759 60.5586 322.759 59.8555ZM323.169 98V66.3594H331.02V98H323.169ZM340.245 98V56.0469H348.331V98H340.245ZM351.437 98V90.3828H353.546C353.78 90.3828 353.995 90.3633 354.191 90.3242C354.425 90.2461 354.62 90.168 354.777 90.0898C354.933 90.0117 355.07 89.9141 355.187 89.7969C355.304 89.6797 355.382 89.5625 355.421 89.4453C355.499 89.3281 355.558 89.2305 355.597 89.1523C355.636 89.0352 355.675 88.9375 355.714 88.8594V88.8008V73.8008C355.714 73.332 355.421 72.9219 354.835 72.5703C354.484 72.375 354.073 72.2578 353.605 72.2188H351.437V64.6016H353.546C357.062 64.6016 359.816 66.1445 361.808 69.2305C362.784 70.7539 363.292 72.1992 363.331 73.5664V88.918C363.331 90.6758 362.57 92.4922 361.046 94.3672C359.054 96.75 356.554 97.9609 353.546 98H351.437ZM370.916 88.918V73.5664C370.955 71.6523 371.834 69.7773 373.552 67.9414C375.662 65.7539 378.24 64.6406 381.287 64.6016V71.9844C380.154 71.9844 379.373 72.4727 378.943 73.4492C378.826 73.6836 378.767 73.8984 378.767 74.0938V77.0234H387.498V74.1523C387.459 72.707 386.443 71.9844 384.451 71.9844V64.6016C387.302 64.6016 389.802 65.5781 391.951 67.5312C393.826 69.25 394.783 71.2422 394.822 73.5078V84.582H378.767V88.918C379.041 90.0508 379.9 90.6758 381.345 90.793V98C377.673 98 374.763 96.4961 372.615 93.4883C371.482 91.8867 370.916 90.3633 370.916 88.918ZM384.451 98V90.8516C386.56 90.8125 387.908 89.8164 388.494 87.8633L394.88 90.2656C394.295 92.7656 392.81 94.7773 390.427 96.3008C388.591 97.4336 386.599 98 384.451 98ZM419.659 98L427.217 63.8984H428.096L431.612 80.3047L427.745 98H419.659ZM432.139 93.0195L433.897 84.9336H436.006L429.795 56.9844H437.94L447.608 98H439.405L438.233 93.0195H432.139ZM454.782 98V56.9844H463.044V98H454.782Z"/>
<defs>
<linearGradient gradientUnits="userSpaceOnUse" y2="108" x2="43" y1="0.205475" x1="43" id="paint0_linear_156_50">
<stop stop-color="#63A3FB"/>
<stop stop-color="#827BF3" offset="1"/>
</linearGradient>
<linearGradient gradientUnits="userSpaceOnUse" y2="44.9726" x2="48.5887" y1="92.2135" x1="48.5887" id="paint1_linear_156_50">
<stop stop-color="#63A3FB"/>
<stop stop-color="#827BF3" offset="1"/>
</linearGradient>
<linearGradient gradientUnits="userSpaceOnUse" y2="63.769" x2="28.572" y1="72.8815" x1="28.572" id="paint2_linear_156_50">
<stop stop-color="#63A3FB"/>
<stop stop-color="#827BF3" offset="1"/>
</linearGradient>
<linearGradient gradientUnits="userSpaceOnUse" y2="63.7666" x2="47.4029" y1="72.8159" x1="47.4029" id="paint3_linear_156_50">
<stop stop-color="#63A3FB"/>
<stop stop-color="#827BF3" offset="1"/>
</linearGradient>
<linearGradient gradientUnits="userSpaceOnUse" y2="81.5" x2="590" y1="81.5" x1="110" id="paint4_linear_156_50">
<stop stop-color="#63A3FB"/>
<stop stop-color="#9372F8" offset="1"/>
</linearGradient>
<clipPath id="clip0_156_50">
<rect transform="translate(17.0822 44.9726)" fill="white" height="38.8767" width="51.8356"/>
</clipPath>
</defs>
</svg>